<svg width="18" height="18" viewBox="0 0 18 18" fill="none" xmlns="http://www.w3.org/2000/svg">
<path d="M16 4.1375H13.8625V2.3875C13.8625 1.8206 13.6373 1.27692 13.2364 0.876059C12.8356 0.4752 12.2919 0.25 11.725 0.25H2.3875C1.8206 0.25 1.27692 0.4752 0.876059 0.876059C0.4752 1.27692 0.25 1.8206 0.25 2.3875V11.725C0.251649 12.2914 0.477379 12.8341 0.877881 13.2346C1.27838 13.6351 1.82111 13.8609 2.3875 13.8625H4.1375V16C4.13912 16.4615 4.3223 16.9038 4.64744 17.2312C4.97258 17.5587 5.41355 17.7451 5.875 17.75H16C16.4636 17.7484 16.9078 17.5635 17.2356 17.2356C17.5635 16.9078 17.7484 16.4636 17.75 16V5.875C17.7451 5.41355 17.5587 4.97258 17.2312 4.64744C16.9038 4.3223 16.4615 4.13912 16 4.1375ZM2.3875 12.6937C2.13057 12.6937 1.88417 12.5917 1.70249 12.41C1.52081 12.2283 1.41875 11.9819 1.41875 11.725V2.3875C1.41792 2.26005 1.44241 2.1337 1.4908 2.0158C1.53919 1.89789 1.61052 1.79076 1.70064 1.70064C1.79076 1.61052 1.89789 1.53919 2.0158 1.4908C2.1337 1.44241 2.26005 1.41792 2.3875 1.41875H11.725C11.9819 1.41875 12.2283 1.52081 12.41 1.70249C12.5917 1.88417 12.6937 2.13057 12.6937 2.3875V4.1375H5.875C5.4157 4.14238 4.97659 4.327 4.65179 4.65179C4.327 4.97659 4.14238 5.4157 4.1375 5.875V12.6937H2.3875ZM16.5812 16C16.5812 16.1542 16.52 16.302 16.411 16.411C16.302 16.52 16.1542 16.5812 16 16.5812H5.875C5.72084 16.5812 5.573 16.52 5.46399 16.411C5.35499 16.302 5.29375 16.1542 5.29375 16V5.875C5.29375 5.72084 5.35499 5.573 5.46399 5.46399C5.573 5.35499 5.72084 5.29375 5.875 5.29375H16C16.1542 5.29375 16.302 5.35499 16.411 5.46399C16.52 5.573 16.5812 5.72084 16.5812 5.875V16Z" fill="black"/>
</svg>
