<svg width="18" height="18" viewBox="0 0 18 18" fill="none" xmlns="http://www.w3.org/2000/svg">
<path d="M12.1386 9.00087L17.4726 14.3349C17.8191 14.6814 17.8191 15.244 17.4726 15.5905L15.5905 17.4726C15.244 17.8191 14.6822 17.8191 14.3348 17.4726L8.99996 12.1386L3.66508 17.4726C3.31858 17.8191 2.75683 17.8191 2.41033 17.4726L0.527331 15.5905C0.180831 15.244 0.180831 14.6822 0.527331 14.3349L5.86221 9.00087L0.527331 3.666C0.180831 3.3195 0.180831 2.75687 0.527331 2.41037L2.41121 0.528247C2.75771 0.181747 3.31946 0.181747 3.66596 0.528247L8.99996 5.86312L14.3348 0.528247C14.6813 0.181747 15.2431 0.181747 15.5905 0.528247L17.4726 2.41125C17.8191 2.75775 17.8191 3.3195 17.4726 3.66687L12.1386 9.00087Z" fill="white"/>
</svg>
