<svg width="24" height="10" viewBox="0 0 24 10" fill="none" xmlns="http://www.w3.org/2000/svg">
<path d="M1.416 9C1.256 9 1.12 8.952 1.008 8.856C0.896 8.752 0.84 8.624 0.84 8.472V1.128C0.84 0.976 0.892 0.852 0.996 0.756C1.108 0.651999 1.248 0.599999 1.416 0.599999H4.224C4.904 0.599999 5.504 0.727999 6.024 0.983999C6.544 1.24 6.948 1.6 7.236 2.064C7.532 2.52 7.68 3.044 7.68 3.636V5.94C7.68 6.532 7.532 7.06 7.236 7.524C6.948 7.988 6.54 8.352 6.012 8.616C5.492 8.872 4.896 9 4.224 9H1.416ZM4.104 8.016C4.872 8.016 5.472 7.836 5.904 7.476C6.336 7.108 6.552 6.6 6.552 5.952V3.624C6.552 2.984 6.336 2.484 5.904 2.124C5.472 1.764 4.872 1.584 4.104 1.584H1.968V8.016H4.104ZM9.24234 1.464C9.24234 1.16 9.33434 0.924 9.51834 0.756C9.71034 0.579999 9.97434 0.491999 10.3103 0.491999L14.9663 7.572L15.0503 7.5L14.7023 6.924V0.491999C15.0703 0.491999 15.3463 0.572 15.5303 0.732C15.7223 0.892 15.8183 1.124 15.8183 1.428V8.22C15.8183 8.476 15.7263 8.688 15.5423 8.856C15.3663 9.024 15.1383 9.108 14.8583 9.108L10.0943 1.872L10.0103 1.944L10.3583 2.52V8.172C10.3583 8.476 10.2623 8.708 10.0703 8.868C9.88634 9.028 9.61034 9.108 9.24234 9.108V1.464ZM17.5041 1.128C17.5041 0.976 17.5601 0.852 17.6721 0.756C17.7841 0.651999 17.9201 0.599999 18.0801 0.599999H23.4321C23.4321 0.935999 23.3641 1.184 23.2281 1.344C23.0921 1.504 22.8841 1.584 22.6041 1.584H18.6321V4.212H21.9921C21.9921 4.548 21.9241 4.796 21.7881 4.956C21.6521 5.116 21.4441 5.196 21.1641 5.196H18.6321V8.196C18.6321 8.508 18.5401 8.74 18.3561 8.892C18.1721 9.036 17.8881 9.108 17.5041 9.108V1.128Z" fill="black"/>
</svg>
