<svg width="16" height="10" viewBox="0 0 16 10" fill="none" xmlns="http://www.w3.org/2000/svg">
<path d="M3.996 9.108C3.332 9.108 2.736 8.98 2.208 8.724C1.688 8.46 1.28 8.1 0.984 7.644C0.688 7.18 0.54 6.668 0.54 6.108V3.468C0.54 2.908 0.688 2.404 0.984 1.956C1.28 1.5 1.688 1.144 2.208 0.887999C2.736 0.623999 3.332 0.491999 3.996 0.491999C4.668 0.491999 5.264 0.623999 5.784 0.887999C6.312 1.144 6.724 1.5 7.02 1.956C7.316 2.404 7.464 2.908 7.464 3.468V6.108C7.464 6.668 7.316 7.18 7.02 7.644C6.724 8.1 6.312 8.46 5.784 8.724C5.256 8.98 4.66 9.108 3.996 9.108ZM3.996 8.124C4.74 8.124 5.32 7.94 5.736 7.572C6.152 7.204 6.36 6.712 6.36 6.096V3.492C6.36 2.876 6.152 2.388 5.736 2.028C5.32 1.66 4.74 1.476 3.996 1.476C3.26 1.476 2.684 1.66 2.268 2.028C1.852 2.388 1.644 2.876 1.644 3.492V6.096C1.644 6.712 1.852 7.204 2.268 7.572C2.684 7.94 3.26 8.124 3.996 8.124ZM8.84391 1.428C8.84391 1.132 8.94391 0.904 9.14391 0.744C9.34391 0.575999 9.61991 0.491999 9.97191 0.491999V4.608L14.3519 0.491999C14.4879 0.603999 14.5999 0.724 14.6879 0.852C14.7759 0.972 14.8199 1.08 14.8199 1.176C14.8199 1.376 14.6999 1.588 14.4599 1.812L11.6519 4.452L15.2759 8.796C15.1879 8.892 15.0839 8.968 14.9639 9.024C14.8519 9.08 14.7399 9.108 14.6279 9.108C14.3159 9.108 14.0639 8.996 13.8719 8.772L10.8359 5.172L9.97191 5.976V8.208C9.97191 8.512 9.87991 8.74 9.69591 8.892C9.51191 9.036 9.22791 9.108 8.84391 9.108V1.428Z" fill="black"/>
</svg>
