<svg width="15" height="9" viewBox="0 0 15 9" fill="none" xmlns="http://www.w3.org/2000/svg">
<path d="M3.192 5.976H0.54C0.54 5.672 0.608 5.436 0.744 5.268C0.888 5.1 1.096 5.016 1.368 5.016H3.192V3.456C3.192 3.144 3.28 2.92 3.456 2.784C3.64 2.648 3.916 2.58 4.284 2.58V5.016H6.924C6.924 5.32 6.852 5.556 6.708 5.724C6.572 5.892 6.364 5.976 6.084 5.976H4.284V7.548C4.284 8.132 3.92 8.424 3.192 8.424V5.976ZM8.52084 9C8.36084 9 8.23284 8.956 8.13684 8.868C8.04884 8.78 8.00484 8.66 8.00484 8.508C8.00484 7.892 8.24084 7.316 8.71284 6.78C9.18484 6.244 9.92484 5.712 10.9328 5.184C11.5088 4.88 11.9448 4.62 12.2408 4.404C12.5448 4.18 12.7528 3.96 12.8648 3.744C12.9848 3.52 13.0448 3.256 13.0448 2.952C13.0448 2.48 12.8888 2.12 12.5768 1.872C12.2728 1.624 11.8248 1.5 11.2328 1.5C10.5928 1.5 10.0928 1.652 9.73284 1.956C9.38084 2.26 9.20484 2.684 9.20484 3.228C9.20484 3.372 9.21684 3.524 9.24084 3.684L9.09684 3.696C8.80884 3.696 8.56484 3.612 8.36484 3.444C8.16484 3.276 8.06484 3.068 8.06484 2.82C8.06484 2.388 8.20484 1.996 8.48484 1.644C8.76484 1.284 9.14484 1.004 9.62484 0.804C10.1128 0.595999 10.6488 0.491999 11.2328 0.491999C11.8328 0.491999 12.3568 0.592 12.8048 0.792C13.2528 0.992 13.5968 1.28 13.8368 1.656C14.0768 2.024 14.1968 2.456 14.1968 2.952C14.1968 3.52 13.9888 4.032 13.5728 4.488C13.1648 4.944 12.4728 5.428 11.4968 5.94C10.0808 6.692 9.33284 7.384 9.25284 8.016H13.3688C13.6728 8.016 13.9048 8.1 14.0648 8.268C14.2248 8.436 14.3048 8.68 14.3048 9H8.52084Z" fill="black"/>
</svg>
